<mxfile host="app.diagrams.net" agent="Mozilla/5.0 (Windows NT 10.0; Win64; x64) AppleWebKit/537.36 (KHTML, like Gecko) Chrome/133.0.0.0 Safari/537.36" version="26.0.13">
  <diagram name="Страница — 1" id="cs8K_rbAqzjfXoWdA_zv">
    <mxGraphModel dx="1825" dy="783" grid="1" gridSize="10" guides="1" tooltips="1" connect="1" arrows="1" fold="1" page="0" pageScale="1" pageWidth="827" pageHeight="1169" background="none" math="1" shadow="0">
      <root>
        <mxCell id="0" />
        <mxCell id="1" parent="0" />
        <mxCell id="g34GDSs9A8v0qDvVafHA-1" value="" style="rounded=0;whiteSpace=wrap;html=1;" parent="1" vertex="1">
          <mxGeometry x="320" y="160" width="80" height="40" as="geometry" />
        </mxCell>
        <mxCell id="g34GDSs9A8v0qDvVafHA-2" value="R&lt;sub&gt;3&lt;/sub&gt;" style="text;html=1;align=center;verticalAlign=middle;whiteSpace=wrap;rounded=0;" parent="1" vertex="1">
          <mxGeometry x="330" y="130" width="60" height="30" as="geometry" />
        </mxCell>
        <mxCell id="g34GDSs9A8v0qDvVafHA-5" value="" style="endArrow=none;html=1;rounded=0;entryX=0;entryY=0.5;entryDx=0;entryDy=0;" parent="1" target="g34GDSs9A8v0qDvVafHA-1" edge="1">
          <mxGeometry width="50" height="50" relative="1" as="geometry">
            <mxPoint x="40" y="180" as="sourcePoint" />
            <mxPoint x="420" y="230" as="targetPoint" />
          </mxGeometry>
        </mxCell>
        <mxCell id="g34GDSs9A8v0qDvVafHA-6" value="" style="endArrow=none;html=1;rounded=0;" parent="1" source="g34GDSs9A8v0qDvVafHA-8" edge="1">
          <mxGeometry width="50" height="50" relative="1" as="geometry">
            <mxPoint x="40" y="280" as="sourcePoint" />
            <mxPoint x="40" y="180" as="targetPoint" />
          </mxGeometry>
        </mxCell>
        <mxCell id="g34GDSs9A8v0qDvVafHA-7" value="" style="endArrow=none;html=1;rounded=0;" parent="1" source="g34GDSs9A8v0qDvVafHA-10" edge="1">
          <mxGeometry width="50" height="50" relative="1" as="geometry">
            <mxPoint x="680" y="280" as="sourcePoint" />
            <mxPoint x="680" y="180" as="targetPoint" />
          </mxGeometry>
        </mxCell>
        <mxCell id="g34GDSs9A8v0qDvVafHA-9" value="" style="endArrow=none;html=1;rounded=0;" parent="1" target="g34GDSs9A8v0qDvVafHA-8" edge="1">
          <mxGeometry width="50" height="50" relative="1" as="geometry">
            <mxPoint x="40" y="280" as="sourcePoint" />
            <mxPoint x="40" y="180" as="targetPoint" />
          </mxGeometry>
        </mxCell>
        <mxCell id="g34GDSs9A8v0qDvVafHA-8" value="" style="shape=waypoint;sketch=0;fillStyle=solid;size=6;pointerEvents=1;points=[];fillColor=none;resizable=0;rotatable=0;perimeter=centerPerimeter;snapToPoint=1;" parent="1" vertex="1">
          <mxGeometry x="30" y="270" width="20" height="20" as="geometry" />
        </mxCell>
        <mxCell id="g34GDSs9A8v0qDvVafHA-11" value="" style="endArrow=none;html=1;rounded=0;" parent="1" target="g34GDSs9A8v0qDvVafHA-10" edge="1">
          <mxGeometry width="50" height="50" relative="1" as="geometry">
            <mxPoint x="680" y="280" as="sourcePoint" />
            <mxPoint x="680" y="180" as="targetPoint" />
          </mxGeometry>
        </mxCell>
        <mxCell id="g34GDSs9A8v0qDvVafHA-10" value="" style="shape=waypoint;sketch=0;fillStyle=solid;size=6;pointerEvents=1;points=[];fillColor=none;resizable=0;rotatable=0;perimeter=centerPerimeter;snapToPoint=1;" parent="1" vertex="1">
          <mxGeometry x="670" y="270" width="20" height="20" as="geometry" />
        </mxCell>
        <mxCell id="g34GDSs9A8v0qDvVafHA-12" value="" style="endArrow=none;html=1;rounded=0;entryX=0.826;entryY=0.585;entryDx=0;entryDy=0;entryPerimeter=0;exitX=0.536;exitY=0.904;exitDx=0;exitDy=0;exitPerimeter=0;" parent="1" source="g34GDSs9A8v0qDvVafHA-8" target="g34GDSs9A8v0qDvVafHA-8" edge="1">
          <mxGeometry width="50" height="50" relative="1" as="geometry">
            <mxPoint x="340" y="300" as="sourcePoint" />
            <mxPoint x="390" y="250" as="targetPoint" />
          </mxGeometry>
        </mxCell>
        <mxCell id="g34GDSs9A8v0qDvVafHA-14" value="" style="rounded=0;whiteSpace=wrap;html=1;" parent="1" vertex="1">
          <mxGeometry x="140" y="260" width="80" height="40" as="geometry" />
        </mxCell>
        <mxCell id="g34GDSs9A8v0qDvVafHA-15" value="" style="rounded=0;whiteSpace=wrap;html=1;" parent="1" vertex="1">
          <mxGeometry x="500" y="260" width="80" height="40" as="geometry" />
        </mxCell>
        <mxCell id="g34GDSs9A8v0qDvVafHA-16" value="" style="endArrow=none;html=1;rounded=0;exitX=0.826;exitY=0.904;exitDx=0;exitDy=0;exitPerimeter=0;entryX=0;entryY=0.5;entryDx=0;entryDy=0;" parent="1" source="g34GDSs9A8v0qDvVafHA-8" target="g34GDSs9A8v0qDvVafHA-14" edge="1">
          <mxGeometry width="50" height="50" relative="1" as="geometry">
            <mxPoint x="330" y="360" as="sourcePoint" />
            <mxPoint x="380" y="310" as="targetPoint" />
          </mxGeometry>
        </mxCell>
        <mxCell id="g34GDSs9A8v0qDvVafHA-17" value="" style="endArrow=none;html=1;rounded=0;entryX=0.565;entryY=0.904;entryDx=0;entryDy=0;entryPerimeter=0;exitX=1;exitY=0.5;exitDx=0;exitDy=0;" parent="1" source="g34GDSs9A8v0qDvVafHA-15" target="g34GDSs9A8v0qDvVafHA-10" edge="1">
          <mxGeometry width="50" height="50" relative="1" as="geometry">
            <mxPoint x="330" y="360" as="sourcePoint" />
            <mxPoint x="380" y="310" as="targetPoint" />
          </mxGeometry>
        </mxCell>
        <mxCell id="g34GDSs9A8v0qDvVafHA-18" value="" style="endArrow=none;html=1;rounded=0;exitX=1;exitY=0.5;exitDx=0;exitDy=0;" parent="1" source="g34GDSs9A8v0qDvVafHA-14" edge="1">
          <mxGeometry width="50" height="50" relative="1" as="geometry">
            <mxPoint x="330" y="360" as="sourcePoint" />
            <mxPoint x="360" y="280" as="targetPoint" />
          </mxGeometry>
        </mxCell>
        <mxCell id="g34GDSs9A8v0qDvVafHA-19" value="" style="endArrow=none;html=1;rounded=0;entryX=0;entryY=0.5;entryDx=0;entryDy=0;" parent="1" source="g34GDSs9A8v0qDvVafHA-20" target="g34GDSs9A8v0qDvVafHA-15" edge="1">
          <mxGeometry width="50" height="50" relative="1" as="geometry">
            <mxPoint x="360" y="280" as="sourcePoint" />
            <mxPoint x="380" y="310" as="targetPoint" />
          </mxGeometry>
        </mxCell>
        <mxCell id="g34GDSs9A8v0qDvVafHA-21" value="" style="endArrow=none;html=1;rounded=0;entryDx=0;entryDy=0;" parent="1" target="g34GDSs9A8v0qDvVafHA-20" edge="1">
          <mxGeometry width="50" height="50" relative="1" as="geometry">
            <mxPoint x="360" y="280" as="sourcePoint" />
            <mxPoint x="500" y="280" as="targetPoint" />
          </mxGeometry>
        </mxCell>
        <mxCell id="g34GDSs9A8v0qDvVafHA-20" value="" style="shape=waypoint;sketch=0;fillStyle=solid;size=6;pointerEvents=1;points=[];fillColor=none;resizable=0;rotatable=0;perimeter=centerPerimeter;snapToPoint=1;" parent="1" vertex="1">
          <mxGeometry x="350" y="270" width="20" height="20" as="geometry" />
        </mxCell>
        <mxCell id="g34GDSs9A8v0qDvVafHA-22" value="R&lt;sub&gt;2&lt;/sub&gt;" style="text;html=1;align=center;verticalAlign=middle;whiteSpace=wrap;rounded=0;" parent="1" vertex="1">
          <mxGeometry x="150" y="230" width="60" height="30" as="geometry" />
        </mxCell>
        <mxCell id="g34GDSs9A8v0qDvVafHA-23" value="R&lt;span style=&quot;font-size: 10px;&quot;&gt;5&lt;/span&gt;" style="text;html=1;align=center;verticalAlign=middle;whiteSpace=wrap;rounded=0;" parent="1" vertex="1">
          <mxGeometry x="510" y="230" width="60" height="30" as="geometry" />
        </mxCell>
        <mxCell id="g34GDSs9A8v0qDvVafHA-24" value="" style="rounded=0;whiteSpace=wrap;html=1;rotation=90;" parent="1" vertex="1">
          <mxGeometry x="320" y="390" width="80" height="40" as="geometry" />
        </mxCell>
        <mxCell id="g34GDSs9A8v0qDvVafHA-25" value="" style="endArrow=none;html=1;rounded=0;entryX=0.565;entryY=0.73;entryDx=0;entryDy=0;entryPerimeter=0;exitX=0;exitY=0.5;exitDx=0;exitDy=0;" parent="1" source="g34GDSs9A8v0qDvVafHA-24" target="g34GDSs9A8v0qDvVafHA-20" edge="1">
          <mxGeometry width="50" height="50" relative="1" as="geometry">
            <mxPoint x="330" y="380" as="sourcePoint" />
            <mxPoint x="380" y="330" as="targetPoint" />
          </mxGeometry>
        </mxCell>
        <mxCell id="g34GDSs9A8v0qDvVafHA-26" value="" style="rounded=0;whiteSpace=wrap;html=1;rotation=90;" parent="1" vertex="1">
          <mxGeometry x="640" y="390" width="80" height="40" as="geometry" />
        </mxCell>
        <mxCell id="g34GDSs9A8v0qDvVafHA-27" value="" style="endArrow=none;html=1;rounded=0;entryX=0.536;entryY=0.846;entryDx=0;entryDy=0;entryPerimeter=0;exitX=0;exitY=0.5;exitDx=0;exitDy=0;" parent="1" source="g34GDSs9A8v0qDvVafHA-26" target="g34GDSs9A8v0qDvVafHA-10" edge="1">
          <mxGeometry width="50" height="50" relative="1" as="geometry">
            <mxPoint x="510" y="430" as="sourcePoint" />
            <mxPoint x="530" y="410" as="targetPoint" />
            <Array as="points" />
          </mxGeometry>
        </mxCell>
        <mxCell id="g34GDSs9A8v0qDvVafHA-28" value="" style="ellipse;whiteSpace=wrap;html=1;aspect=fixed;" parent="1" vertex="1">
          <mxGeometry x="650" y="530" width="60" height="60" as="geometry" />
        </mxCell>
        <mxCell id="g34GDSs9A8v0qDvVafHA-31" value="" style="ellipse;whiteSpace=wrap;html=1;aspect=fixed;" parent="1" vertex="1">
          <mxGeometry x="10" y="530" width="60" height="60" as="geometry" />
        </mxCell>
        <mxCell id="g34GDSs9A8v0qDvVafHA-29" value="" style="endArrow=none;html=1;rounded=0;entryX=1;entryY=0.5;entryDx=0;entryDy=0;exitX=0.5;exitY=0;exitDx=0;exitDy=0;" parent="1" source="g34GDSs9A8v0qDvVafHA-28" target="g34GDSs9A8v0qDvVafHA-26" edge="1">
          <mxGeometry width="50" height="50" relative="1" as="geometry">
            <mxPoint x="550" y="500" as="sourcePoint" />
            <mxPoint x="600" y="450" as="targetPoint" />
          </mxGeometry>
        </mxCell>
        <mxCell id="g34GDSs9A8v0qDvVafHA-32" value="" style="endArrow=none;html=1;rounded=0;entryX=0.739;entryY=0.643;entryDx=0;entryDy=0;entryPerimeter=0;exitX=0.5;exitY=0;exitDx=0;exitDy=0;" parent="1" source="g34GDSs9A8v0qDvVafHA-31" target="g34GDSs9A8v0qDvVafHA-8" edge="1">
          <mxGeometry width="50" height="50" relative="1" as="geometry">
            <mxPoint x="180" y="500" as="sourcePoint" />
            <mxPoint x="230" y="450" as="targetPoint" />
          </mxGeometry>
        </mxCell>
        <mxCell id="g34GDSs9A8v0qDvVafHA-33" value="" style="endArrow=none;html=1;rounded=0;entryX=0.5;entryY=1;entryDx=0;entryDy=0;" parent="1" target="g34GDSs9A8v0qDvVafHA-31" edge="1">
          <mxGeometry width="50" height="50" relative="1" as="geometry">
            <mxPoint x="40" y="680" as="sourcePoint" />
            <mxPoint x="350" y="410" as="targetPoint" />
          </mxGeometry>
        </mxCell>
        <mxCell id="g34GDSs9A8v0qDvVafHA-34" value="" style="endArrow=none;html=1;rounded=0;" parent="1" edge="1">
          <mxGeometry width="50" height="50" relative="1" as="geometry">
            <mxPoint x="40" y="680" as="sourcePoint" />
            <mxPoint x="360" y="680" as="targetPoint" />
          </mxGeometry>
        </mxCell>
        <mxCell id="g34GDSs9A8v0qDvVafHA-35" value="" style="endArrow=none;html=1;rounded=0;" parent="1" edge="1">
          <mxGeometry width="50" height="50" relative="1" as="geometry">
            <mxPoint x="360" y="680" as="sourcePoint" />
            <mxPoint x="681.1594025985054" y="680" as="targetPoint" />
          </mxGeometry>
        </mxCell>
        <mxCell id="g34GDSs9A8v0qDvVafHA-36" value="" style="endArrow=none;html=1;rounded=0;entryX=0.5;entryY=1;entryDx=0;entryDy=0;" parent="1" target="g34GDSs9A8v0qDvVafHA-28" edge="1">
          <mxGeometry width="50" height="50" relative="1" as="geometry">
            <mxPoint x="680" y="680" as="sourcePoint" />
            <mxPoint x="370" y="530" as="targetPoint" />
          </mxGeometry>
        </mxCell>
        <mxCell id="g34GDSs9A8v0qDvVafHA-37" value="" style="endArrow=none;html=1;rounded=0;entryX=1;entryY=0.5;entryDx=0;entryDy=0;" parent="1" source="g34GDSs9A8v0qDvVafHA-38" target="g34GDSs9A8v0qDvVafHA-24" edge="1">
          <mxGeometry width="50" height="50" relative="1" as="geometry">
            <mxPoint x="360" y="680" as="sourcePoint" />
            <mxPoint x="370" y="530" as="targetPoint" />
          </mxGeometry>
        </mxCell>
        <mxCell id="g34GDSs9A8v0qDvVafHA-39" value="" style="endArrow=none;html=1;rounded=0;entryDx=0;entryDy=0;" parent="1" target="g34GDSs9A8v0qDvVafHA-38" edge="1">
          <mxGeometry width="50" height="50" relative="1" as="geometry">
            <mxPoint x="360" y="680" as="sourcePoint" />
            <mxPoint x="360" y="450" as="targetPoint" />
          </mxGeometry>
        </mxCell>
        <mxCell id="g34GDSs9A8v0qDvVafHA-38" value="" style="shape=waypoint;sketch=0;fillStyle=solid;size=6;pointerEvents=1;points=[];fillColor=none;resizable=0;rotatable=0;perimeter=centerPerimeter;snapToPoint=1;" parent="1" vertex="1">
          <mxGeometry x="350" y="670" width="20" height="20" as="geometry" />
        </mxCell>
        <mxCell id="g34GDSs9A8v0qDvVafHA-40" value="" style="ellipse;whiteSpace=wrap;html=1;aspect=fixed;" parent="1" vertex="1">
          <mxGeometry x="530" y="150" width="60" height="60" as="geometry" />
        </mxCell>
        <mxCell id="g34GDSs9A8v0qDvVafHA-41" value="" style="endArrow=none;html=1;rounded=0;entryX=0;entryY=0.5;entryDx=0;entryDy=0;exitX=1;exitY=0.5;exitDx=0;exitDy=0;" parent="1" source="g34GDSs9A8v0qDvVafHA-1" target="g34GDSs9A8v0qDvVafHA-40" edge="1">
          <mxGeometry width="50" height="50" relative="1" as="geometry">
            <mxPoint x="320" y="420" as="sourcePoint" />
            <mxPoint x="370" y="370" as="targetPoint" />
          </mxGeometry>
        </mxCell>
        <mxCell id="g34GDSs9A8v0qDvVafHA-42" value="" style="endArrow=none;html=1;rounded=0;exitX=1;exitY=0.5;exitDx=0;exitDy=0;" parent="1" source="g34GDSs9A8v0qDvVafHA-40" edge="1">
          <mxGeometry width="50" height="50" relative="1" as="geometry">
            <mxPoint x="320" y="420" as="sourcePoint" />
            <mxPoint x="680" y="180" as="targetPoint" />
          </mxGeometry>
        </mxCell>
        <mxCell id="g34GDSs9A8v0qDvVafHA-43" value="R&lt;sub&gt;6&lt;/sub&gt;" style="text;html=1;align=center;verticalAlign=middle;whiteSpace=wrap;rounded=0;" parent="1" vertex="1">
          <mxGeometry x="700" y="395" width="60" height="30" as="geometry" />
        </mxCell>
        <mxCell id="g34GDSs9A8v0qDvVafHA-44" value="R&lt;sub&gt;4&lt;/sub&gt;" style="text;html=1;align=center;verticalAlign=middle;whiteSpace=wrap;rounded=0;" parent="1" vertex="1">
          <mxGeometry x="370" y="390" width="60" height="30" as="geometry" />
        </mxCell>
        <mxCell id="g34GDSs9A8v0qDvVafHA-45" value="" style="endArrow=classic;html=1;rounded=0;" parent="1" edge="1">
          <mxGeometry width="50" height="50" relative="1" as="geometry">
            <mxPoint x="680" y="550" as="sourcePoint" />
            <mxPoint x="680" y="570" as="targetPoint" />
          </mxGeometry>
        </mxCell>
        <mxCell id="g34GDSs9A8v0qDvVafHA-48" value="" style="endArrow=classic;html=1;rounded=0;" parent="1" edge="1">
          <mxGeometry width="50" height="50" relative="1" as="geometry">
            <mxPoint x="545" y="179.57" as="sourcePoint" />
            <mxPoint x="575" y="179.57" as="targetPoint" />
          </mxGeometry>
        </mxCell>
        <mxCell id="g34GDSs9A8v0qDvVafHA-49" value="" style="endArrow=none;html=1;rounded=0;" parent="1" edge="1">
          <mxGeometry width="50" height="50" relative="1" as="geometry">
            <mxPoint x="20" y="560" as="sourcePoint" />
            <mxPoint x="40" y="540" as="targetPoint" />
          </mxGeometry>
        </mxCell>
        <mxCell id="g34GDSs9A8v0qDvVafHA-50" value="" style="endArrow=none;html=1;rounded=0;" parent="1" edge="1">
          <mxGeometry width="50" height="50" relative="1" as="geometry">
            <mxPoint x="40" y="540" as="sourcePoint" />
            <mxPoint x="60" y="560" as="targetPoint" />
          </mxGeometry>
        </mxCell>
        <mxCell id="g34GDSs9A8v0qDvVafHA-52" value="" style="endArrow=none;html=1;rounded=0;" parent="1" edge="1">
          <mxGeometry width="50" height="50" relative="1" as="geometry">
            <mxPoint x="20" y="570" as="sourcePoint" />
            <mxPoint x="40" y="550" as="targetPoint" />
          </mxGeometry>
        </mxCell>
        <mxCell id="g34GDSs9A8v0qDvVafHA-53" value="" style="endArrow=none;html=1;rounded=0;" parent="1" edge="1">
          <mxGeometry width="50" height="50" relative="1" as="geometry">
            <mxPoint x="40" y="550" as="sourcePoint" />
            <mxPoint x="60" y="570" as="targetPoint" />
          </mxGeometry>
        </mxCell>
        <mxCell id="g34GDSs9A8v0qDvVafHA-54" value="J" style="text;html=1;align=center;verticalAlign=middle;whiteSpace=wrap;rounded=0;" parent="1" vertex="1">
          <mxGeometry x="40" y="520" width="60" height="30" as="geometry" />
        </mxCell>
        <mxCell id="g34GDSs9A8v0qDvVafHA-55" value="E&lt;sub&gt;3&lt;/sub&gt;" style="text;html=1;align=center;verticalAlign=middle;whiteSpace=wrap;rounded=0;" parent="1" vertex="1">
          <mxGeometry x="530" y="120" width="60" height="30" as="geometry" />
        </mxCell>
        <mxCell id="g34GDSs9A8v0qDvVafHA-56" value="E&lt;sub&gt;6&lt;/sub&gt;" style="text;html=1;align=center;verticalAlign=middle;whiteSpace=wrap;rounded=0;" parent="1" vertex="1">
          <mxGeometry x="700" y="540" width="60" height="30" as="geometry" />
        </mxCell>
        <mxCell id="g34GDSs9A8v0qDvVafHA-57" value="" style="endArrow=classic;html=1;rounded=0;" parent="1" edge="1">
          <mxGeometry width="50" height="50" relative="1" as="geometry">
            <mxPoint x="160" y="180" as="sourcePoint" />
            <mxPoint x="240" y="180" as="targetPoint" />
          </mxGeometry>
        </mxCell>
        <mxCell id="g34GDSs9A8v0qDvVafHA-58" value="I&lt;sub&gt;1&lt;/sub&gt;" style="text;html=1;align=center;verticalAlign=middle;whiteSpace=wrap;rounded=0;" parent="1" vertex="1">
          <mxGeometry x="190" y="140" width="60" height="30" as="geometry" />
        </mxCell>
        <mxCell id="g34GDSs9A8v0qDvVafHA-60" value="" style="endArrow=classic;html=1;rounded=0;" parent="1" edge="1">
          <mxGeometry width="50" height="50" relative="1" as="geometry">
            <mxPoint x="260" y="280" as="sourcePoint" />
            <mxPoint x="300" y="280" as="targetPoint" />
          </mxGeometry>
        </mxCell>
        <mxCell id="g34GDSs9A8v0qDvVafHA-61" value="I&lt;sub&gt;2&lt;/sub&gt;" style="text;html=1;align=center;verticalAlign=middle;whiteSpace=wrap;rounded=0;" parent="1" vertex="1">
          <mxGeometry x="260" y="250" width="60" height="30" as="geometry" />
        </mxCell>
        <mxCell id="g34GDSs9A8v0qDvVafHA-62" value="" style="endArrow=classic;html=1;rounded=0;" parent="1" edge="1">
          <mxGeometry width="50" height="50" relative="1" as="geometry">
            <mxPoint x="410" y="280" as="sourcePoint" />
            <mxPoint x="470" y="280" as="targetPoint" />
          </mxGeometry>
        </mxCell>
        <mxCell id="g34GDSs9A8v0qDvVafHA-63" value="I&lt;sub&gt;3&lt;/sub&gt;" style="text;html=1;align=center;verticalAlign=middle;whiteSpace=wrap;rounded=0;" parent="1" vertex="1">
          <mxGeometry x="414" y="250" width="60" height="30" as="geometry" />
        </mxCell>
        <mxCell id="g34GDSs9A8v0qDvVafHA-64" value="" style="endArrow=classic;html=1;rounded=0;" parent="1" edge="1">
          <mxGeometry width="50" height="50" relative="1" as="geometry">
            <mxPoint x="360" y="590" as="sourcePoint" />
            <mxPoint x="360" y="510" as="targetPoint" />
          </mxGeometry>
        </mxCell>
        <mxCell id="g34GDSs9A8v0qDvVafHA-65" value="I&lt;sub&gt;4&lt;/sub&gt;" style="text;html=1;align=center;verticalAlign=middle;whiteSpace=wrap;rounded=0;" parent="1" vertex="1">
          <mxGeometry x="350" y="500" width="60" height="30" as="geometry" />
        </mxCell>
        <mxCell id="g34GDSs9A8v0qDvVafHA-66" value="" style="endArrow=classic;html=1;rounded=0;" parent="1" edge="1">
          <mxGeometry width="50" height="50" relative="1" as="geometry">
            <mxPoint x="680" y="320" as="sourcePoint" />
            <mxPoint x="680" y="360" as="targetPoint" />
          </mxGeometry>
        </mxCell>
        <mxCell id="g34GDSs9A8v0qDvVafHA-67" value="I&lt;sub&gt;5&lt;/sub&gt;" style="text;html=1;align=center;verticalAlign=middle;whiteSpace=wrap;rounded=0;" parent="1" vertex="1">
          <mxGeometry x="670" y="330" width="60" height="30" as="geometry" />
        </mxCell>
        <mxCell id="g34GDSs9A8v0qDvVafHA-68" value="" style="ellipse;whiteSpace=wrap;html=1;aspect=fixed;" parent="1" vertex="1">
          <mxGeometry x="-10" y="240" width="30" height="30" as="geometry" />
        </mxCell>
        <mxCell id="g34GDSs9A8v0qDvVafHA-70" value="1" style="text;html=1;align=center;verticalAlign=middle;whiteSpace=wrap;rounded=0;" parent="1" vertex="1">
          <mxGeometry x="-25" y="240" width="60" height="30" as="geometry" />
        </mxCell>
        <mxCell id="g34GDSs9A8v0qDvVafHA-71" value="" style="ellipse;whiteSpace=wrap;html=1;aspect=fixed;" parent="1" vertex="1">
          <mxGeometry x="350" y="240" width="30" height="30" as="geometry" />
        </mxCell>
        <mxCell id="g34GDSs9A8v0qDvVafHA-72" value="2" style="text;html=1;align=center;verticalAlign=middle;whiteSpace=wrap;rounded=0;" parent="1" vertex="1">
          <mxGeometry x="335" y="240" width="60" height="30" as="geometry" />
        </mxCell>
        <mxCell id="g34GDSs9A8v0qDvVafHA-73" value="" style="ellipse;whiteSpace=wrap;html=1;aspect=fixed;" parent="1" vertex="1">
          <mxGeometry x="700" y="250" width="35" height="35" as="geometry" />
        </mxCell>
        <mxCell id="g34GDSs9A8v0qDvVafHA-74" value="3" style="text;html=1;align=center;verticalAlign=middle;whiteSpace=wrap;rounded=0;" parent="1" vertex="1">
          <mxGeometry x="687.5" y="252.5" width="60" height="30" as="geometry" />
        </mxCell>
        <mxCell id="g34GDSs9A8v0qDvVafHA-75" value="" style="ellipse;whiteSpace=wrap;html=1;aspect=fixed;" parent="1" vertex="1">
          <mxGeometry x="360" y="690" width="35" height="35" as="geometry" />
        </mxCell>
        <mxCell id="g34GDSs9A8v0qDvVafHA-76" value="4" style="text;html=1;align=center;verticalAlign=middle;whiteSpace=wrap;rounded=0;" parent="1" vertex="1">
          <mxGeometry x="347.5" y="692.5" width="60" height="30" as="geometry" />
        </mxCell>
        <mxCell id="g34GDSs9A8v0qDvVafHA-82" value="" style="ellipse;whiteSpace=wrap;html=1;rotation=90;opacity=30;" parent="1" vertex="1">
          <mxGeometry x="407.5" y="410" width="236" height="155" as="geometry" />
        </mxCell>
        <mxCell id="g34GDSs9A8v0qDvVafHA-83" value="" style="endArrow=classic;html=1;rounded=0;entryX=0.721;entryY=0.012;entryDx=0;entryDy=0;entryPerimeter=0;exitX=0.382;exitY=0.008;exitDx=0;exitDy=0;exitPerimeter=0;opacity=30;" parent="1" source="g34GDSs9A8v0qDvVafHA-82" target="g34GDSs9A8v0qDvVafHA-82" edge="1">
          <mxGeometry width="50" height="50" relative="1" as="geometry">
            <mxPoint x="340" y="450" as="sourcePoint" />
            <mxPoint x="390" y="400" as="targetPoint" />
          </mxGeometry>
        </mxCell>
        <mxCell id="g34GDSs9A8v0qDvVafHA-84" value="I&lt;sub&gt;22&lt;/sub&gt;" style="text;html=1;align=center;verticalAlign=middle;whiteSpace=wrap;rounded=0;" parent="1" vertex="1">
          <mxGeometry x="590" y="490" width="60" height="30" as="geometry" />
        </mxCell>
        <mxCell id="g34GDSs9A8v0qDvVafHA-85" value="" style="ellipse;whiteSpace=wrap;html=1;opacity=30;" parent="1" vertex="1">
          <mxGeometry x="165" y="210" width="390" height="40" as="geometry" />
        </mxCell>
        <mxCell id="g34GDSs9A8v0qDvVafHA-86" value="" style="endArrow=classic;html=1;rounded=0;entryX=0.658;entryY=0.098;entryDx=0;entryDy=0;entryPerimeter=0;exitX=0.36;exitY=0.082;exitDx=0;exitDy=0;exitPerimeter=0;opacity=30;" parent="1" source="g34GDSs9A8v0qDvVafHA-85" target="g34GDSs9A8v0qDvVafHA-85" edge="1">
          <mxGeometry width="50" height="50" relative="1" as="geometry">
            <mxPoint x="340" y="450" as="sourcePoint" />
            <mxPoint x="390" y="400" as="targetPoint" />
          </mxGeometry>
        </mxCell>
        <mxCell id="g34GDSs9A8v0qDvVafHA-87" value="I&lt;sub&gt;11&lt;/sub&gt;" style="text;html=1;align=center;verticalAlign=middle;whiteSpace=wrap;rounded=0;" parent="1" vertex="1">
          <mxGeometry x="400" y="190" width="60" height="30" as="geometry" />
        </mxCell>
        <mxCell id="g34GDSs9A8v0qDvVafHA-88" value="" style="ellipse;whiteSpace=wrap;html=1;opacity=30;" parent="1" vertex="1">
          <mxGeometry x="110" y="375" width="180" height="245" as="geometry" />
        </mxCell>
        <mxCell id="g34GDSs9A8v0qDvVafHA-89" value="" style="endArrow=classic;html=1;rounded=0;opacity=30;entryX=0.923;entryY=0.213;entryDx=0;entryDy=0;entryPerimeter=0;exitX=1.004;exitY=0.659;exitDx=0;exitDy=0;exitPerimeter=0;" parent="1" source="g34GDSs9A8v0qDvVafHA-88" target="g34GDSs9A8v0qDvVafHA-88" edge="1">
          <mxGeometry width="50" height="50" relative="1" as="geometry">
            <mxPoint x="340" y="450" as="sourcePoint" />
            <mxPoint x="390" y="400" as="targetPoint" />
            <Array as="points">
              <mxPoint x="291" y="480" />
            </Array>
          </mxGeometry>
        </mxCell>
        <mxCell id="g34GDSs9A8v0qDvVafHA-90" value="I&lt;sub&gt;33&lt;/sub&gt;" style="text;html=1;align=center;verticalAlign=middle;whiteSpace=wrap;rounded=0;" parent="1" vertex="1">
          <mxGeometry x="270" y="410" width="60" height="30" as="geometry" />
        </mxCell>
        <mxCell id="37Dt-IcMZA26iDlS6gNg-1" value="" style="endArrow=classic;html=1;rounded=0;exitX=1;exitY=0.5;exitDx=0;exitDy=0;" parent="1" source="37Dt-IcMZA26iDlS6gNg-2" edge="1">
          <mxGeometry width="50" height="50" relative="1" as="geometry">
            <mxPoint x="-40" y="600" as="sourcePoint" />
            <mxPoint x="-40" y="610" as="targetPoint" />
          </mxGeometry>
        </mxCell>
        <mxCell id="37Dt-IcMZA26iDlS6gNg-2" value="U&lt;sub&gt;J&lt;/sub&gt;" style="text;html=1;align=center;verticalAlign=middle;whiteSpace=wrap;rounded=0;" parent="1" vertex="1">
          <mxGeometry x="-100" y="510" width="60" height="30" as="geometry" />
        </mxCell>
        <mxCell id="tyodwNA0cFit0jglr-rY-3" value="" style="endArrow=none;html=1;rounded=0;" parent="1" edge="1">
          <mxGeometry width="50" height="50" relative="1" as="geometry">
            <mxPoint x="70" y="1090" as="sourcePoint" />
            <mxPoint x="430" y="1090" as="targetPoint" />
          </mxGeometry>
        </mxCell>
        <mxCell id="tyodwNA0cFit0jglr-rY-4" value="" style="endArrow=none;html=1;rounded=0;" parent="1" source="tyodwNA0cFit0jglr-rY-7" edge="1">
          <mxGeometry width="50" height="50" relative="1" as="geometry">
            <mxPoint x="70" y="1190" as="sourcePoint" />
            <mxPoint x="70" y="1090" as="targetPoint" />
          </mxGeometry>
        </mxCell>
        <mxCell id="tyodwNA0cFit0jglr-rY-5" value="" style="endArrow=none;html=1;rounded=0;" parent="1" source="tyodwNA0cFit0jglr-rY-9" edge="1">
          <mxGeometry width="50" height="50" relative="1" as="geometry">
            <mxPoint x="710" y="1190" as="sourcePoint" />
            <mxPoint x="710" y="1090" as="targetPoint" />
          </mxGeometry>
        </mxCell>
        <mxCell id="tyodwNA0cFit0jglr-rY-6" value="" style="endArrow=none;html=1;rounded=0;" parent="1" target="tyodwNA0cFit0jglr-rY-7" edge="1">
          <mxGeometry width="50" height="50" relative="1" as="geometry">
            <mxPoint x="70" y="1190" as="sourcePoint" />
            <mxPoint x="70" y="1090" as="targetPoint" />
          </mxGeometry>
        </mxCell>
        <mxCell id="tyodwNA0cFit0jglr-rY-7" value="" style="shape=waypoint;sketch=0;fillStyle=solid;size=6;pointerEvents=1;points=[];fillColor=none;resizable=0;rotatable=0;perimeter=centerPerimeter;snapToPoint=1;" parent="1" vertex="1">
          <mxGeometry x="60" y="1180" width="20" height="20" as="geometry" />
        </mxCell>
        <mxCell id="tyodwNA0cFit0jglr-rY-8" value="" style="endArrow=none;html=1;rounded=0;" parent="1" target="tyodwNA0cFit0jglr-rY-9" edge="1">
          <mxGeometry width="50" height="50" relative="1" as="geometry">
            <mxPoint x="710" y="1190" as="sourcePoint" />
            <mxPoint x="710" y="1090" as="targetPoint" />
          </mxGeometry>
        </mxCell>
        <mxCell id="tyodwNA0cFit0jglr-rY-9" value="" style="shape=waypoint;sketch=0;fillStyle=solid;size=6;pointerEvents=1;points=[];fillColor=none;resizable=0;rotatable=0;perimeter=centerPerimeter;snapToPoint=1;" parent="1" vertex="1">
          <mxGeometry x="700" y="1180" width="20" height="20" as="geometry" />
        </mxCell>
        <mxCell id="tyodwNA0cFit0jglr-rY-10" value="" style="endArrow=none;html=1;rounded=0;entryX=0.826;entryY=0.585;entryDx=0;entryDy=0;entryPerimeter=0;exitX=0.536;exitY=0.904;exitDx=0;exitDy=0;exitPerimeter=0;" parent="1" source="tyodwNA0cFit0jglr-rY-7" target="tyodwNA0cFit0jglr-rY-7" edge="1">
          <mxGeometry width="50" height="50" relative="1" as="geometry">
            <mxPoint x="370" y="1210" as="sourcePoint" />
            <mxPoint x="420" y="1160" as="targetPoint" />
          </mxGeometry>
        </mxCell>
        <mxCell id="tyodwNA0cFit0jglr-rY-11" value="" style="rounded=0;whiteSpace=wrap;html=1;" parent="1" vertex="1">
          <mxGeometry x="170" y="1170" width="80" height="40" as="geometry" />
        </mxCell>
        <mxCell id="tyodwNA0cFit0jglr-rY-12" value="" style="rounded=0;whiteSpace=wrap;html=1;" parent="1" vertex="1">
          <mxGeometry x="530" y="1170" width="80" height="40" as="geometry" />
        </mxCell>
        <mxCell id="tyodwNA0cFit0jglr-rY-13" value="" style="endArrow=none;html=1;rounded=0;exitX=0.826;exitY=0.904;exitDx=0;exitDy=0;exitPerimeter=0;entryX=0;entryY=0.5;entryDx=0;entryDy=0;" parent="1" source="tyodwNA0cFit0jglr-rY-7" target="tyodwNA0cFit0jglr-rY-11" edge="1">
          <mxGeometry width="50" height="50" relative="1" as="geometry">
            <mxPoint x="360" y="1270" as="sourcePoint" />
            <mxPoint x="410" y="1220" as="targetPoint" />
          </mxGeometry>
        </mxCell>
        <mxCell id="tyodwNA0cFit0jglr-rY-14" value="" style="endArrow=none;html=1;rounded=0;entryX=0.565;entryY=0.904;entryDx=0;entryDy=0;entryPerimeter=0;exitX=1;exitY=0.5;exitDx=0;exitDy=0;" parent="1" source="tyodwNA0cFit0jglr-rY-12" target="tyodwNA0cFit0jglr-rY-9" edge="1">
          <mxGeometry width="50" height="50" relative="1" as="geometry">
            <mxPoint x="360" y="1270" as="sourcePoint" />
            <mxPoint x="410" y="1220" as="targetPoint" />
          </mxGeometry>
        </mxCell>
        <mxCell id="tyodwNA0cFit0jglr-rY-15" value="" style="endArrow=none;html=1;rounded=0;exitX=1;exitY=0.5;exitDx=0;exitDy=0;" parent="1" source="tyodwNA0cFit0jglr-rY-11" edge="1">
          <mxGeometry width="50" height="50" relative="1" as="geometry">
            <mxPoint x="360" y="1270" as="sourcePoint" />
            <mxPoint x="390" y="1190" as="targetPoint" />
          </mxGeometry>
        </mxCell>
        <mxCell id="tyodwNA0cFit0jglr-rY-16" value="" style="endArrow=none;html=1;rounded=0;entryX=0;entryY=0.5;entryDx=0;entryDy=0;" parent="1" source="tyodwNA0cFit0jglr-rY-18" target="tyodwNA0cFit0jglr-rY-12" edge="1">
          <mxGeometry width="50" height="50" relative="1" as="geometry">
            <mxPoint x="390" y="1190" as="sourcePoint" />
            <mxPoint x="410" y="1220" as="targetPoint" />
          </mxGeometry>
        </mxCell>
        <mxCell id="tyodwNA0cFit0jglr-rY-17" value="" style="endArrow=none;html=1;rounded=0;entryDx=0;entryDy=0;" parent="1" target="tyodwNA0cFit0jglr-rY-18" edge="1">
          <mxGeometry width="50" height="50" relative="1" as="geometry">
            <mxPoint x="390" y="1190" as="sourcePoint" />
            <mxPoint x="530" y="1190" as="targetPoint" />
          </mxGeometry>
        </mxCell>
        <mxCell id="tyodwNA0cFit0jglr-rY-18" value="" style="shape=waypoint;sketch=0;fillStyle=solid;size=6;pointerEvents=1;points=[];fillColor=none;resizable=0;rotatable=0;perimeter=centerPerimeter;snapToPoint=1;" parent="1" vertex="1">
          <mxGeometry x="380" y="1180" width="20" height="20" as="geometry" />
        </mxCell>
        <mxCell id="tyodwNA0cFit0jglr-rY-19" value="R&lt;sub&gt;2&lt;/sub&gt;" style="text;html=1;align=center;verticalAlign=middle;whiteSpace=wrap;rounded=0;" parent="1" vertex="1">
          <mxGeometry x="180" y="1140" width="60" height="30" as="geometry" />
        </mxCell>
        <mxCell id="tyodwNA0cFit0jglr-rY-20" value="R&lt;span style=&quot;font-size: 10px;&quot;&gt;5&lt;/span&gt;" style="text;html=1;align=center;verticalAlign=middle;whiteSpace=wrap;rounded=0;" parent="1" vertex="1">
          <mxGeometry x="540" y="1140" width="60" height="30" as="geometry" />
        </mxCell>
        <mxCell id="tyodwNA0cFit0jglr-rY-21" value="" style="rounded=0;whiteSpace=wrap;html=1;rotation=90;" parent="1" vertex="1">
          <mxGeometry x="350" y="1300" width="80" height="40" as="geometry" />
        </mxCell>
        <mxCell id="tyodwNA0cFit0jglr-rY-22" value="" style="endArrow=none;html=1;rounded=0;entryX=0.565;entryY=0.73;entryDx=0;entryDy=0;entryPerimeter=0;exitX=0;exitY=0.5;exitDx=0;exitDy=0;" parent="1" source="tyodwNA0cFit0jglr-rY-21" target="tyodwNA0cFit0jglr-rY-18" edge="1">
          <mxGeometry width="50" height="50" relative="1" as="geometry">
            <mxPoint x="360" y="1290" as="sourcePoint" />
            <mxPoint x="410" y="1240" as="targetPoint" />
          </mxGeometry>
        </mxCell>
        <mxCell id="tyodwNA0cFit0jglr-rY-23" value="" style="rounded=0;whiteSpace=wrap;html=1;rotation=90;" parent="1" vertex="1">
          <mxGeometry x="670" y="1300" width="80" height="40" as="geometry" />
        </mxCell>
        <mxCell id="tyodwNA0cFit0jglr-rY-24" value="" style="endArrow=none;html=1;rounded=0;entryX=0.536;entryY=0.846;entryDx=0;entryDy=0;entryPerimeter=0;exitX=0;exitY=0.5;exitDx=0;exitDy=0;" parent="1" source="tyodwNA0cFit0jglr-rY-23" target="tyodwNA0cFit0jglr-rY-9" edge="1">
          <mxGeometry width="50" height="50" relative="1" as="geometry">
            <mxPoint x="540" y="1340" as="sourcePoint" />
            <mxPoint x="560" y="1320" as="targetPoint" />
            <Array as="points" />
          </mxGeometry>
        </mxCell>
        <mxCell id="tyodwNA0cFit0jglr-rY-27" value="" style="endArrow=none;html=1;rounded=0;entryX=1;entryY=0.5;entryDx=0;entryDy=0;" parent="1" target="tyodwNA0cFit0jglr-rY-23" edge="1">
          <mxGeometry width="50" height="50" relative="1" as="geometry">
            <mxPoint x="710" y="1500" as="sourcePoint" />
            <mxPoint x="630" y="1360" as="targetPoint" />
          </mxGeometry>
        </mxCell>
        <mxCell id="tyodwNA0cFit0jglr-rY-28" value="" style="endArrow=none;html=1;rounded=0;entryX=0.473;entryY=0.363;entryDx=0;entryDy=0;entryPerimeter=0;exitX=0;exitY=0.5;exitDx=0;exitDy=0;" parent="1" source="tyodwNA0cFit0jglr-rY-90" target="tyodwNA0cFit0jglr-rY-7" edge="1">
          <mxGeometry width="50" height="50" relative="1" as="geometry">
            <mxPoint x="70" y="1270" as="sourcePoint" />
            <mxPoint x="-80" y="1304.9999999999998" as="targetPoint" />
          </mxGeometry>
        </mxCell>
        <mxCell id="tyodwNA0cFit0jglr-rY-29" value="" style="endArrow=none;html=1;rounded=0;entryX=0.5;entryY=1;entryDx=0;entryDy=0;" parent="1" edge="1">
          <mxGeometry width="50" height="50" relative="1" as="geometry">
            <mxPoint x="70" y="1590" as="sourcePoint" />
            <mxPoint x="70" y="1500" as="targetPoint" />
          </mxGeometry>
        </mxCell>
        <mxCell id="tyodwNA0cFit0jglr-rY-30" value="" style="endArrow=none;html=1;rounded=0;" parent="1" edge="1">
          <mxGeometry width="50" height="50" relative="1" as="geometry">
            <mxPoint x="70" y="1590" as="sourcePoint" />
            <mxPoint x="390" y="1590" as="targetPoint" />
          </mxGeometry>
        </mxCell>
        <mxCell id="tyodwNA0cFit0jglr-rY-31" value="" style="endArrow=none;html=1;rounded=0;" parent="1" edge="1">
          <mxGeometry width="50" height="50" relative="1" as="geometry">
            <mxPoint x="390" y="1590" as="sourcePoint" />
            <mxPoint x="711.1594025985054" y="1590" as="targetPoint" />
          </mxGeometry>
        </mxCell>
        <mxCell id="tyodwNA0cFit0jglr-rY-32" value="" style="endArrow=none;html=1;rounded=0;entryX=0.5;entryY=1;entryDx=0;entryDy=0;" parent="1" edge="1">
          <mxGeometry width="50" height="50" relative="1" as="geometry">
            <mxPoint x="710" y="1590" as="sourcePoint" />
            <mxPoint x="710" y="1500" as="targetPoint" />
          </mxGeometry>
        </mxCell>
        <mxCell id="tyodwNA0cFit0jglr-rY-33" value="" style="endArrow=none;html=1;rounded=0;entryX=1;entryY=0.5;entryDx=0;entryDy=0;" parent="1" source="tyodwNA0cFit0jglr-rY-35" target="tyodwNA0cFit0jglr-rY-21" edge="1">
          <mxGeometry width="50" height="50" relative="1" as="geometry">
            <mxPoint x="390" y="1590" as="sourcePoint" />
            <mxPoint x="400" y="1440" as="targetPoint" />
          </mxGeometry>
        </mxCell>
        <mxCell id="tyodwNA0cFit0jglr-rY-34" value="" style="endArrow=none;html=1;rounded=0;entryDx=0;entryDy=0;" parent="1" target="tyodwNA0cFit0jglr-rY-35" edge="1">
          <mxGeometry width="50" height="50" relative="1" as="geometry">
            <mxPoint x="390" y="1590" as="sourcePoint" />
            <mxPoint x="390" y="1360" as="targetPoint" />
          </mxGeometry>
        </mxCell>
        <mxCell id="tyodwNA0cFit0jglr-rY-35" value="" style="shape=waypoint;sketch=0;fillStyle=solid;size=6;pointerEvents=1;points=[];fillColor=none;resizable=0;rotatable=0;perimeter=centerPerimeter;snapToPoint=1;" parent="1" vertex="1">
          <mxGeometry x="380" y="1580" width="20" height="20" as="geometry" />
        </mxCell>
        <mxCell id="tyodwNA0cFit0jglr-rY-37" value="" style="endArrow=none;html=1;rounded=0;entryX=0;entryY=0.5;entryDx=0;entryDy=0;exitX=1;exitY=0.5;exitDx=0;exitDy=0;" parent="1" edge="1">
          <mxGeometry width="50" height="50" relative="1" as="geometry">
            <mxPoint x="430.0000000000002" y="1090" as="sourcePoint" />
            <mxPoint x="560" y="1090" as="targetPoint" />
          </mxGeometry>
        </mxCell>
        <mxCell id="tyodwNA0cFit0jglr-rY-38" value="" style="endArrow=none;html=1;rounded=0;exitX=1;exitY=0.5;exitDx=0;exitDy=0;" parent="1" edge="1">
          <mxGeometry width="50" height="50" relative="1" as="geometry">
            <mxPoint x="620" y="1090" as="sourcePoint" />
            <mxPoint x="710" y="1090" as="targetPoint" />
          </mxGeometry>
        </mxCell>
        <mxCell id="tyodwNA0cFit0jglr-rY-39" value="R&lt;sub&gt;6&lt;/sub&gt;" style="text;html=1;align=center;verticalAlign=middle;whiteSpace=wrap;rounded=0;" parent="1" vertex="1">
          <mxGeometry x="730" y="1305" width="60" height="30" as="geometry" />
        </mxCell>
        <mxCell id="tyodwNA0cFit0jglr-rY-40" value="R&lt;sub&gt;4&lt;/sub&gt;" style="text;html=1;align=center;verticalAlign=middle;whiteSpace=wrap;rounded=0;" parent="1" vertex="1">
          <mxGeometry x="400" y="1300" width="60" height="30" as="geometry" />
        </mxCell>
        <mxCell id="tyodwNA0cFit0jglr-rY-47" value="J" style="text;html=1;align=center;verticalAlign=middle;whiteSpace=wrap;rounded=0;" parent="1" vertex="1">
          <mxGeometry x="600" y="1040" width="60" height="30" as="geometry" />
        </mxCell>
        <mxCell id="tyodwNA0cFit0jglr-rY-49" value="E&lt;span style=&quot;font-size: 10px;&quot;&gt;5&lt;/span&gt;" style="text;html=1;align=center;verticalAlign=middle;whiteSpace=wrap;rounded=0;" parent="1" vertex="1">
          <mxGeometry x="643.5" y="1140" width="60" height="30" as="geometry" />
        </mxCell>
        <mxCell id="tyodwNA0cFit0jglr-rY-51" value="I&lt;sub&gt;1&lt;/sub&gt;" style="text;html=1;align=center;verticalAlign=middle;whiteSpace=wrap;rounded=0;" parent="1" vertex="1">
          <mxGeometry x="5" y="1410" width="60" height="30" as="geometry" />
        </mxCell>
        <mxCell id="tyodwNA0cFit0jglr-rY-52" value="" style="endArrow=classic;html=1;rounded=0;" parent="1" edge="1">
          <mxGeometry width="50" height="50" relative="1" as="geometry">
            <mxPoint x="290" y="1190" as="sourcePoint" />
            <mxPoint x="330" y="1190" as="targetPoint" />
          </mxGeometry>
        </mxCell>
        <mxCell id="tyodwNA0cFit0jglr-rY-53" value="I&lt;sub&gt;2&lt;/sub&gt;" style="text;html=1;align=center;verticalAlign=middle;whiteSpace=wrap;rounded=0;" parent="1" vertex="1">
          <mxGeometry x="290" y="1160" width="60" height="30" as="geometry" />
        </mxCell>
        <mxCell id="tyodwNA0cFit0jglr-rY-54" value="" style="endArrow=classic;html=1;rounded=0;" parent="1" edge="1">
          <mxGeometry width="50" height="50" relative="1" as="geometry">
            <mxPoint x="440" y="1190" as="sourcePoint" />
            <mxPoint x="500" y="1190" as="targetPoint" />
          </mxGeometry>
        </mxCell>
        <mxCell id="tyodwNA0cFit0jglr-rY-55" value="I&lt;sub&gt;3&lt;/sub&gt;" style="text;html=1;align=center;verticalAlign=middle;whiteSpace=wrap;rounded=0;" parent="1" vertex="1">
          <mxGeometry x="444" y="1160" width="60" height="30" as="geometry" />
        </mxCell>
        <mxCell id="tyodwNA0cFit0jglr-rY-56" value="" style="endArrow=classic;html=1;rounded=0;" parent="1" edge="1">
          <mxGeometry width="50" height="50" relative="1" as="geometry">
            <mxPoint x="390" y="1500" as="sourcePoint" />
            <mxPoint x="390" y="1420" as="targetPoint" />
          </mxGeometry>
        </mxCell>
        <mxCell id="tyodwNA0cFit0jglr-rY-57" value="I&lt;sub&gt;4&lt;/sub&gt;" style="text;html=1;align=center;verticalAlign=middle;whiteSpace=wrap;rounded=0;" parent="1" vertex="1">
          <mxGeometry x="380" y="1410" width="60" height="30" as="geometry" />
        </mxCell>
        <mxCell id="tyodwNA0cFit0jglr-rY-58" value="" style="endArrow=classic;html=1;rounded=0;" parent="1" edge="1">
          <mxGeometry width="50" height="50" relative="1" as="geometry">
            <mxPoint x="710" y="1230" as="sourcePoint" />
            <mxPoint x="710" y="1270" as="targetPoint" />
          </mxGeometry>
        </mxCell>
        <mxCell id="tyodwNA0cFit0jglr-rY-59" value="I&lt;sub&gt;5&lt;/sub&gt;" style="text;html=1;align=center;verticalAlign=middle;whiteSpace=wrap;rounded=0;" parent="1" vertex="1">
          <mxGeometry x="700" y="1240" width="60" height="30" as="geometry" />
        </mxCell>
        <mxCell id="tyodwNA0cFit0jglr-rY-60" value="" style="ellipse;whiteSpace=wrap;html=1;aspect=fixed;" parent="1" vertex="1">
          <mxGeometry x="20" y="1150" width="30" height="30" as="geometry" />
        </mxCell>
        <mxCell id="tyodwNA0cFit0jglr-rY-61" value="1" style="text;html=1;align=center;verticalAlign=middle;whiteSpace=wrap;rounded=0;" parent="1" vertex="1">
          <mxGeometry x="5" y="1150" width="60" height="30" as="geometry" />
        </mxCell>
        <mxCell id="tyodwNA0cFit0jglr-rY-62" value="" style="ellipse;whiteSpace=wrap;html=1;aspect=fixed;" parent="1" vertex="1">
          <mxGeometry x="380" y="1150" width="30" height="30" as="geometry" />
        </mxCell>
        <mxCell id="tyodwNA0cFit0jglr-rY-63" value="2" style="text;html=1;align=center;verticalAlign=middle;whiteSpace=wrap;rounded=0;" parent="1" vertex="1">
          <mxGeometry x="365" y="1150" width="60" height="30" as="geometry" />
        </mxCell>
        <mxCell id="tyodwNA0cFit0jglr-rY-64" value="" style="ellipse;whiteSpace=wrap;html=1;aspect=fixed;" parent="1" vertex="1">
          <mxGeometry x="730" y="1160" width="35" height="35" as="geometry" />
        </mxCell>
        <mxCell id="tyodwNA0cFit0jglr-rY-65" value="3" style="text;html=1;align=center;verticalAlign=middle;whiteSpace=wrap;rounded=0;" parent="1" vertex="1">
          <mxGeometry x="717.5" y="1162.5" width="60" height="30" as="geometry" />
        </mxCell>
        <mxCell id="tyodwNA0cFit0jglr-rY-66" value="" style="ellipse;whiteSpace=wrap;html=1;aspect=fixed;" parent="1" vertex="1">
          <mxGeometry x="390" y="1600" width="35" height="35" as="geometry" />
        </mxCell>
        <mxCell id="tyodwNA0cFit0jglr-rY-67" value="4" style="text;html=1;align=center;verticalAlign=middle;whiteSpace=wrap;rounded=0;" parent="1" vertex="1">
          <mxGeometry x="377.5" y="1602.5" width="60" height="30" as="geometry" />
        </mxCell>
        <mxCell id="tyodwNA0cFit0jglr-rY-68" value="" style="ellipse;whiteSpace=wrap;html=1;rotation=90;opacity=30;" parent="1" vertex="1">
          <mxGeometry x="437.5" y="1320" width="236" height="155" as="geometry" />
        </mxCell>
        <mxCell id="tyodwNA0cFit0jglr-rY-69" value="" style="endArrow=classic;html=1;rounded=0;entryX=0.721;entryY=0.012;entryDx=0;entryDy=0;entryPerimeter=0;exitX=0.382;exitY=0.008;exitDx=0;exitDy=0;exitPerimeter=0;opacity=30;" parent="1" source="tyodwNA0cFit0jglr-rY-68" target="tyodwNA0cFit0jglr-rY-68" edge="1">
          <mxGeometry width="50" height="50" relative="1" as="geometry">
            <mxPoint x="370" y="1360" as="sourcePoint" />
            <mxPoint x="420" y="1310" as="targetPoint" />
          </mxGeometry>
        </mxCell>
        <mxCell id="tyodwNA0cFit0jglr-rY-70" value="I&lt;sub&gt;22&lt;/sub&gt;" style="text;html=1;align=center;verticalAlign=middle;whiteSpace=wrap;rounded=0;" parent="1" vertex="1">
          <mxGeometry x="620" y="1400" width="60" height="30" as="geometry" />
        </mxCell>
        <mxCell id="tyodwNA0cFit0jglr-rY-71" value="" style="ellipse;whiteSpace=wrap;html=1;opacity=30;" parent="1" vertex="1">
          <mxGeometry x="195" y="1120" width="390" height="40" as="geometry" />
        </mxCell>
        <mxCell id="tyodwNA0cFit0jglr-rY-72" value="" style="endArrow=classic;html=1;rounded=0;entryX=0.658;entryY=0.098;entryDx=0;entryDy=0;entryPerimeter=0;exitX=0.36;exitY=0.082;exitDx=0;exitDy=0;exitPerimeter=0;opacity=30;" parent="1" source="tyodwNA0cFit0jglr-rY-71" target="tyodwNA0cFit0jglr-rY-71" edge="1">
          <mxGeometry width="50" height="50" relative="1" as="geometry">
            <mxPoint x="370" y="1360" as="sourcePoint" />
            <mxPoint x="420" y="1310" as="targetPoint" />
          </mxGeometry>
        </mxCell>
        <mxCell id="tyodwNA0cFit0jglr-rY-73" value="I&lt;sub&gt;11&lt;/sub&gt;" style="text;html=1;align=center;verticalAlign=middle;whiteSpace=wrap;rounded=0;" parent="1" vertex="1">
          <mxGeometry x="290" y="1310" width="60" height="30" as="geometry" />
        </mxCell>
        <mxCell id="tyodwNA0cFit0jglr-rY-74" value="" style="ellipse;whiteSpace=wrap;html=1;opacity=30;" parent="1" vertex="1">
          <mxGeometry x="140" y="1285" width="180" height="245" as="geometry" />
        </mxCell>
        <mxCell id="tyodwNA0cFit0jglr-rY-75" value="" style="endArrow=classic;html=1;rounded=0;opacity=30;entryX=0.923;entryY=0.213;entryDx=0;entryDy=0;entryPerimeter=0;exitX=1.004;exitY=0.659;exitDx=0;exitDy=0;exitPerimeter=0;" parent="1" source="tyodwNA0cFit0jglr-rY-74" target="tyodwNA0cFit0jglr-rY-74" edge="1">
          <mxGeometry width="50" height="50" relative="1" as="geometry">
            <mxPoint x="370" y="1360" as="sourcePoint" />
            <mxPoint x="420" y="1310" as="targetPoint" />
            <Array as="points">
              <mxPoint x="321" y="1390" />
            </Array>
          </mxGeometry>
        </mxCell>
        <mxCell id="tyodwNA0cFit0jglr-rY-76" value="I&lt;sub&gt;33&lt;/sub&gt;" style="text;html=1;align=center;verticalAlign=middle;whiteSpace=wrap;rounded=0;" parent="1" vertex="1">
          <mxGeometry x="425" y="1090" width="60" height="30" as="geometry" />
        </mxCell>
        <mxCell id="tyodwNA0cFit0jglr-rY-77" value="" style="endArrow=classic;html=1;rounded=0;" parent="1" edge="1">
          <mxGeometry width="50" height="50" relative="1" as="geometry">
            <mxPoint x="630" y="1000" as="sourcePoint" />
            <mxPoint x="520" y="1000" as="targetPoint" />
          </mxGeometry>
        </mxCell>
        <mxCell id="tyodwNA0cFit0jglr-rY-78" value="U&lt;sub&gt;J&lt;/sub&gt;" style="text;html=1;align=center;verticalAlign=middle;whiteSpace=wrap;rounded=0;" parent="1" vertex="1">
          <mxGeometry x="520" y="960" width="60" height="30" as="geometry" />
        </mxCell>
        <mxCell id="tyodwNA0cFit0jglr-rY-84" value="" style="ellipse;whiteSpace=wrap;html=1;aspect=fixed;direction=south;" parent="1" vertex="1">
          <mxGeometry x="560" y="1060" width="60" height="60" as="geometry" />
        </mxCell>
        <mxCell id="tyodwNA0cFit0jglr-rY-85" value="" style="endArrow=none;html=1;rounded=0;" parent="1" edge="1">
          <mxGeometry width="50" height="50" relative="1" as="geometry">
            <mxPoint x="576" y="1110" as="sourcePoint" />
            <mxPoint x="596" y="1090" as="targetPoint" />
          </mxGeometry>
        </mxCell>
        <mxCell id="tyodwNA0cFit0jglr-rY-86" value="" style="endArrow=none;html=1;rounded=0;" parent="1" edge="1">
          <mxGeometry width="50" height="50" relative="1" as="geometry">
            <mxPoint x="596" y="1090" as="sourcePoint" />
            <mxPoint x="576" y="1070" as="targetPoint" />
          </mxGeometry>
        </mxCell>
        <mxCell id="tyodwNA0cFit0jglr-rY-87" value="" style="endArrow=none;html=1;rounded=0;" parent="1" edge="1">
          <mxGeometry width="50" height="50" relative="1" as="geometry">
            <mxPoint x="606" y="1090" as="sourcePoint" />
            <mxPoint x="586" y="1110" as="targetPoint" />
          </mxGeometry>
        </mxCell>
        <mxCell id="tyodwNA0cFit0jglr-rY-88" value="" style="endArrow=none;html=1;rounded=0;" parent="1" edge="1">
          <mxGeometry width="50" height="50" relative="1" as="geometry">
            <mxPoint x="606" y="1090" as="sourcePoint" />
            <mxPoint x="586.0000000000005" y="1070" as="targetPoint" />
          </mxGeometry>
        </mxCell>
        <mxCell id="tyodwNA0cFit0jglr-rY-90" value="" style="rounded=0;whiteSpace=wrap;html=1;direction=south;" parent="1" vertex="1">
          <mxGeometry x="50" y="1275" width="40" height="80" as="geometry" />
        </mxCell>
        <mxCell id="tyodwNA0cFit0jglr-rY-93" value="" style="endArrow=none;html=1;rounded=0;exitX=1;exitY=0.5;exitDx=0;exitDy=0;" parent="1" source="tyodwNA0cFit0jglr-rY-90" edge="1">
          <mxGeometry width="50" height="50" relative="1" as="geometry">
            <mxPoint x="130" y="1370" as="sourcePoint" />
            <mxPoint x="70" y="1500" as="targetPoint" />
          </mxGeometry>
        </mxCell>
        <mxCell id="tyodwNA0cFit0jglr-rY-94" value="R&lt;span style=&quot;font-size: 10px;&quot;&gt;1&lt;/span&gt;" style="text;html=1;align=center;verticalAlign=middle;whiteSpace=wrap;rounded=0;" parent="1" vertex="1">
          <mxGeometry x="80" y="1270" width="60" height="30" as="geometry" />
        </mxCell>
        <mxCell id="tyodwNA0cFit0jglr-rY-96" value="" style="ellipse;whiteSpace=wrap;html=1;aspect=fixed;" parent="1" vertex="1">
          <mxGeometry x="627.5" y="1162.5" width="60" height="60" as="geometry" />
        </mxCell>
        <mxCell id="tyodwNA0cFit0jglr-rY-97" value="" style="endArrow=classic;html=1;rounded=0;entryX=1.036;entryY=0.47;entryDx=0;entryDy=0;entryPerimeter=0;" parent="1" edge="1">
          <mxGeometry width="50" height="50" relative="1" as="geometry">
            <mxPoint x="643.84" y="1190" as="sourcePoint" />
            <mxPoint x="673.4999999999999" y="1190.7" as="targetPoint" />
          </mxGeometry>
        </mxCell>
        <mxCell id="tyodwNA0cFit0jglr-rY-98" value="" style="ellipse;whiteSpace=wrap;html=1;aspect=fixed;" parent="1" vertex="1">
          <mxGeometry x="360" y="1470" width="60" height="60" as="geometry" />
        </mxCell>
        <mxCell id="tyodwNA0cFit0jglr-rY-99" value="" style="endArrow=classic;html=1;rounded=0;" parent="1" edge="1">
          <mxGeometry width="50" height="50" relative="1" as="geometry">
            <mxPoint x="390" y="1490" as="sourcePoint" />
            <mxPoint x="390" y="1510" as="targetPoint" />
          </mxGeometry>
        </mxCell>
        <mxCell id="tyodwNA0cFit0jglr-rY-100" value="E&lt;span style=&quot;font-size: 10px;&quot;&gt;4&lt;/span&gt;" style="text;html=1;align=center;verticalAlign=middle;whiteSpace=wrap;rounded=0;" parent="1" vertex="1">
          <mxGeometry x="407.5" y="1485" width="60" height="30" as="geometry" />
        </mxCell>
        <mxCell id="tyodwNA0cFit0jglr-rY-101" value="" style="endArrow=classic;html=1;rounded=0;" parent="1" edge="1">
          <mxGeometry width="50" height="50" relative="1" as="geometry">
            <mxPoint x="70" y="1520" as="sourcePoint" />
            <mxPoint x="70" y="1420" as="targetPoint" />
          </mxGeometry>
        </mxCell>
      </root>
    </mxGraphModel>
  </diagram>
</mxfile>
